<?xml version="1.0" standalone="no"?>
<!DOCTYPE svg PUBLIC "-//W3C//DTD SVG 20010904//EN"
 "http://www.w3.org/TR/2001/REC-SVG-20010904/DTD/svg10.dtd">
<svg version="1.0" xmlns="http://www.w3.org/2000/svg"
 width="1000.000000pt" height="362.000000pt" viewBox="0 0 1000.000000 362.000000"
 preserveAspectRatio="xMidYMid meet">
<metadata>
Created by potrace 1.13, written by Peter Selinger 2001-2015
</metadata>
<g transform="translate(0.000000,362.000000) scale(0.100000,-0.100000)"
fill="#000000" stroke="none">
<path d="M3845 3115 c-5 -2 -86 -9 -180 -15 -215 -13 -347 -26 -455 -45 -47
-8 -146 -24 -220 -36 -209 -33 -511 -92 -530 -104 -4 -2 -63 -16 -131 -30 -68
-14 -146 -32 -174 -41 -27 -8 -115 -32 -195 -53 -80 -21 -179 -48 -220 -60
-41 -12 -90 -26 -107 -32 -36 -10 -84 -24 -135 -38 -111 -31 -347 -118 -423
-155 -104 -51 -172 -115 -195 -184 -11 -35 -11 -52 -1 -95 23 -98 125 -268
164 -275 13 -3 17 4 17 28 0 50 29 150 58 200 45 76 147 165 252 219 117 61
173 80 381 130 283 68 762 107 1204 97 149 -4 284 -3 300 2 l30 9 -30 7 c-29
6 -157 18 -390 35 -60 5 -128 15 -150 22 -66 23 -110 116 -70 149 14 12 72 20
270 40 55 6 136 15 180 20 44 6 127 15 185 20 58 6 141 15 185 20 118 16 532
40 672 40 237 0 438 -25 643 -81 103 -28 199 -58 235 -74 17 -7 66 -25 110
-40 86 -30 460 -208 469 -224 13 -20 -18 -22 -117 -7 -56 8 -142 17 -192 21
-149 10 -150 10 -183 69 -40 69 -55 80 -139 105 -88 26 -155 30 -178 11 -65
-54 -48 -173 28 -200 18 -6 113 -17 212 -25 269 -21 428 -34 550 -45 61 -6
288 -15 505 -20 539 -13 788 -34 1055 -90 50 -10 136 -28 192 -40 220 -46 484
-149 644 -252 76 -50 209 -176 266 -254 26 -35 54 -64 62 -65 32 -1 187 3 211
6 14 1 31 3 38 4 59 6 -99 151 -318 292 -245 158 -536 276 -850 345 -36 7 -76
18 -90 23 -14 5 -56 14 -95 20 -374 58 -620 78 -985 80 l-185 2 -70 38 c-38
20 -101 54 -139 75 -169 92 -282 145 -476 226 -136 56 -178 71 -330 115 -330
96 -398 105 -835 110 -176 2 -324 2 -330 0z"/>
<path d="M2606 2531 c-3 -5 18 -16 47 -25 110 -35 239 -122 315 -214 53 -63
97 -162 113 -249 8 -43 18 -73 25 -73 20 0 37 68 35 141 -1 66 -5 80 -38 158
-11 25 -12 35 -4 41 13 7 1177 20 1898 20 258 0 464 4 467 9 8 13 -36 18 -244
30 -102 6 -241 16 -310 21 -69 6 -159 10 -200 10 -41 0 -122 5 -180 10 -140
14 -500 40 -680 51 -677 39 -979 59 -1064 69 -98 12 -173 13 -180 1z"/>
<path d="M7060 2304 c-161 -26 -190 -37 -325 -117 -90 -53 -234 -212 -211
-234 3 -3 29 17 58 44 90 85 202 154 279 173 132 33 173 39 269 40 115 0 263
-31 343 -71 54 -28 139 -90 201 -148 27 -25 51 -40 53 -34 13 39 -121 179
-237 247 -57 34 -112 57 -172 72 -88 22 -211 36 -258 28z"/>
<path d="M2045 2285 c-133 -31 -254 -101 -355 -205 -107 -110 -126 -174 -24
-81 101 92 209 158 294 179 117 28 146 32 249 32 224 0 394 -68 555 -223 45
-43 59 -35 27 16 -52 84 -224 216 -328 253 -129 44 -303 57 -418 29z"/>
<path d="M3464 2206 c-7 -18 122 -193 175 -237 47 -39 123 -74 189 -88 37 -8
295 -11 840 -10 672 2 1129 10 987 18 -345 20 -484 25 -1425 50 -389 10 -422
16 -484 91 -21 25 -50 66 -63 91 -41 74 -59 86 -141 94 -60 5 -73 4 -78 -9z"/>
<path d="M2429 1573 c-14 -37 -39 -94 -50 -115 -5 -10 -9 -22 -9 -28 0 -10
-32 -86 -51 -122 -5 -10 -9 -25 -9 -33 0 -8 -4 -15 -10 -15 -5 0 -10 -7 -10
-15 0 -8 -4 -24 -10 -35 -5 -11 -14 -29 -20 -40 -5 -11 -10 -25 -10 -32 0 -7
-14 -40 -30 -73 -17 -33 -30 -65 -30 -71 0 -6 -13 -17 -30 -24 -21 -9 -30 -19
-30 -36 0 -24 1 -24 100 -24 84 0 102 3 107 17 4 10 -3 24 -20 39 -29 25 -29
28 4 102 l19 42 144 0 c156 0 151 2 173 -60 18 -50 16 -78 -7 -90 -11 -6 -20
-19 -20 -29 0 -16 12 -19 88 -25 48 -4 95 -4 105 -1 26 11 20 43 -12 59 -15 8
-34 30 -41 48 -6 18 -16 43 -21 56 -5 12 -13 32 -18 45 -5 12 -18 43 -30 69
-12 26 -21 54 -21 62 0 8 -4 18 -10 21 -5 3 -10 14 -10 24 0 10 -6 31 -14 47
-8 16 -21 47 -31 69 -9 22 -21 48 -26 57 -5 10 -9 25 -9 33 0 8 -4 23 -9 33
-5 9 -14 29 -22 45 -11 24 -18 27 -61 27 -44 0 -50 -3 -59 -27z m100 -183 c11
-25 25 -63 32 -85 6 -22 15 -49 20 -60 27 -68 32 -65 -90 -65 l-111 0 0 25 c0
14 4 33 9 43 5 9 13 28 19 42 5 14 19 45 30 70 11 25 26 65 33 89 l13 44 13
-29 c7 -16 21 -49 32 -74z"/>
<path d="M4670 1529 c0 -44 41 -114 82 -141 40 -25 132 -41 195 -34 70 8 165
22 213 32 l35 7 -45 -50 c-25 -28 -65 -74 -90 -104 -38 -46 -173 -193 -337
-369 -113 -120 -163 -181 -163 -199 0 -11 -3 -27 -6 -35 -6 -15 -8 -15 -18 -1
-9 12 -24 -1 -88 -82 -54 -68 -78 -106 -78 -125 0 -16 -5 -28 -10 -28 -6 0
-15 -11 -21 -24 -10 -20 -8 -30 10 -55 28 -39 54 -39 112 -3 24 15 64 34 89
42 25 7 50 16 55 20 6 3 44 17 85 29 41 13 84 27 95 31 75 30 507 47 572 23
15 -6 47 -16 70 -22 75 -21 86 -50 42 -113 -24 -33 -24 -38 -1 -38 20 0 42 21
61 57 14 27 -4 115 -30 154 -18 26 -18 27 4 48 13 11 28 21 33 21 15 0 164
155 164 170 0 7 20 39 45 72 25 33 48 72 50 87 3 14 10 40 15 57 28 88 -14
204 -82 226 -7 3 -12 17 -10 37 3 38 -15 67 -54 87 -27 14 -29 13 -86 -46 -32
-33 -67 -60 -78 -60 -10 0 -22 -4 -25 -10 -3 -5 -16 -10 -29 -10 -18 0 -70
-38 -55 -41 2 0 19 -2 37 -4 18 -1 36 -5 39 -8 2 -3 -9 -26 -26 -51 -17 -24
-31 -48 -31 -53 0 -4 -18 -44 -40 -88 -22 -44 -40 -88 -40 -97 0 -9 -4 -20
-10 -23 -5 -3 -10 -44 -10 -90 0 -46 5 -87 10 -90 6 -3 10 -15 10 -27 0 -19
-4 -20 -52 -13 -29 3 -116 8 -192 11 -123 3 -137 2 -120 -11 17 -13 15 -14
-31 -14 -27 0 -67 4 -89 8 -47 11 -77 4 -54 -13 11 -8 -5 -11 -66 -12 -62 -1
-95 -8 -141 -27 -69 -29 -81 -20 -38 26 17 18 40 47 53 65 26 38 26 39 173
189 59 60 107 115 107 121 0 7 6 12 13 12 17 0 64 45 157 150 41 47 119 131
172 187 54 56 98 108 98 115 0 7 18 37 40 66 43 56 50 87 23 96 -22 7 -115
-10 -258 -46 -22 -6 -96 -12 -165 -15 -135 -5 -182 3 -237 44 -44 32 -53 29
-53 -18z m1066 -403 c33 -31 36 -39 36 -90 1 -45 -6 -70 -31 -119 -31 -61
-101 -147 -120 -147 -5 0 -26 -16 -47 -35 -63 -57 -154 -117 -170 -111 -12 4
-13 17 -9 58 8 64 9 66 75 200 51 102 131 222 174 261 28 25 52 21 92 -17z
m-1101 -406 c-16 -16 -30 -28 -33 -26 -6 6 40 56 52 56 5 0 -3 -13 -19 -30z
m338 -177 c-7 -2 -21 -2 -30 0 -10 3 -4 5 12 5 17 0 24 -2 18 -5z"/>
<path d="M3842 1538 c-6 -6 -12 -25 -12 -41 0 -15 -5 -48 -11 -73 -9 -35 -16
-44 -33 -44 -12 0 -31 -6 -41 -14 -19 -14 -19 -15 -1 -35 11 -12 30 -21 43
-21 l23 0 0 -174 0 -174 36 -36 c31 -31 42 -36 83 -36 50 0 111 30 111 54 0
28 -27 40 -60 26 -25 -10 -36 -10 -56 0 -24 13 -24 14 -24 176 l0 163 68 3 67
3 0 30 0 30 -67 3 -67 3 -3 82 c-3 73 -5 82 -23 85 -11 1 -26 -3 -33 -10z"/>
<path d="M3031 1386 c-18 -22 3 -56 34 -56 l25 0 0 -157 c0 -147 1 -159 24
-197 15 -25 41 -50 66 -64 43 -23 114 -30 125 -12 3 6 14 10 23 10 9 0 30 11
47 24 l30 24 17 -30 c17 -28 21 -29 81 -26 55 3 62 5 65 25 3 17 -5 25 -32 37
l-36 15 -2 203 -3 203 -73 3 -73 3 3 -28 c2 -20 10 -29 28 -33 l25 -6 3 -145
c3 -145 2 -146 -24 -172 -49 -49 -165 -48 -187 1 -7 16 -14 102 -17 207 l-5
180 -66 3 c-49 2 -69 -1 -78 -12z"/>
<path d="M4406 1383 c-60 -10 -110 -48 -140 -109 -56 -108 -45 -228 28 -311
49 -55 91 -73 176 -73 77 0 111 14 167 68 44 44 63 97 63 180 0 99 -41 182
-108 219 -38 22 -133 35 -186 26z m103 -69 c41 -9 71 -41 88 -95 25 -84 8
-183 -40 -231 -25 -24 -36 -28 -88 -28 -50 0 -63 4 -90 28 -71 63 -79 196 -16
285 30 43 73 55 146 41z"/>
<path d="M6555 1238 c-76 -95 -79 -99 -60 -92 14 6 14 3 3 -22 -7 -16 -20 -44
-30 -62 -10 -18 -18 -38 -18 -45 0 -17 38 -48 45 -37 3 5 1 11 -5 15 -20 12
-11 33 12 27 14 -3 19 -2 14 7 -4 6 2 23 13 36 13 17 22 22 26 14 4 -6 3 -14
-3 -18 -6 -4 -14 -26 -18 -49 -4 -23 -10 -42 -13 -42 -4 0 -14 -22 -21 -50 -8
-28 -19 -50 -27 -50 -7 0 -13 -4 -13 -10 0 -5 5 -10 10 -10 17 0 11 -20 -7
-27 -28 -10 -65 -54 -59 -69 3 -7 1 -16 -5 -20 -6 -4 -6 -11 2 -20 7 -8 8 -24
4 -41 -4 -16 -9 -36 -10 -45 -3 -27 -14 -33 -35 -21 -23 15 -30 0 -30 -66 0
-40 6 -54 36 -89 19 -23 39 -42 44 -42 5 0 9 34 9 75 0 41 4 82 9 92 5 10 12
42 15 70 3 29 12 68 20 85 8 18 24 54 36 80 11 26 21 54 21 62 0 8 5 18 10 21
6 3 10 17 10 31 0 13 5 24 10 24 6 0 10 9 10 20 0 11 4 20 8 20 5 0 15 12 22
28 8 15 34 54 58 87 56 76 66 98 59 127 -6 21 -70 68 -93 68 -5 0 -31 -28 -59
-62z m12 -130 c-3 -8 -6 -5 -6 6 -1 11 2 17 5 13 3 -3 4 -12 1 -19z"/>
<path d="M7045 1144 c-49 -52 -92 -100 -94 -106 -2 -7 -15 -23 -28 -36 -19
-19 -23 -30 -18 -53 5 -24 4 -28 -9 -23 -12 5 -15 2 -9 -12 5 -13 3 -16 -10
-11 -9 3 -17 2 -17 -3 0 -6 -9 -19 -20 -30 -11 -11 -20 -27 -20 -35 0 -8 -4
-15 -10 -15 -5 0 -10 -8 -10 -17 0 -10 -7 -27 -15 -37 -25 -32 -20 -143 8
-199 38 -75 42 -77 119 -77 61 0 75 4 113 30 24 17 48 30 53 30 5 0 26 17 48
38 21 20 54 49 72 64 47 39 84 86 77 97 -6 11 -65 -18 -100 -49 -43 -37 -156
-121 -190 -140 -20 -12 -54 -20 -79 -20 -39 0 -45 3 -50 26 -8 29 2 93 17 112
5 6 31 12 58 12 76 0 161 53 234 146 67 86 93 134 99 186 6 48 -18 142 -43
172 -16 18 -64 46 -78 46 -4 -1 -48 -44 -98 -96z m154 -138 c-16 -40 -62 -108
-113 -169 -40 -46 -85 -77 -113 -77 -7 0 -22 -5 -33 -12 -32 -20 -35 -1 -6 42
14 22 26 44 26 50 0 5 4 10 9 10 4 0 29 26 54 58 74 91 111 131 148 156 l34
24 3 -25 c2 -14 -2 -39 -9 -57z"/>
<path d="M6182 1188 c-27 -41 -142 -270 -157 -313 -21 -60 -35 -132 -35 -174
0 -40 5 -55 29 -80 41 -43 65 -40 104 15 34 47 77 119 102 169 8 17 26 43 41
60 14 16 32 43 40 60 8 17 30 48 49 70 20 22 40 48 46 58 18 32 -18 19 -62
-23 -23 -22 -45 -38 -49 -35 -8 5 -59 -48 -83 -87 -10 -16 -21 -28 -26 -28
-17 0 0 35 54 110 99 137 112 178 64 200 -8 4 -28 15 -46 24 -17 9 -34 16 -37
16 -3 0 -18 -19 -34 -42z"/>
<path d="M6436 972 c-3 -5 4 -13 15 -20 15 -10 19 -10 19 2 0 15 -27 29 -34
18z"/>
<path d="M7411 941 c-8 -14 -7 -22 3 -30 15 -13 26 -5 26 20 0 26 -17 32 -29
10z"/>
<path d="M6416 931 c-4 -5 -2 -12 4 -16 16 -10 12 -22 -11 -28 -18 -5 -21 -11
-16 -36 4 -21 2 -31 -9 -35 -8 -3 -12 -10 -9 -16 9 -15 25 -12 25 4 0 7 7 19
15 26 8 7 15 21 15 31 0 11 4 19 9 19 5 0 11 6 14 14 7 17 -28 52 -37 37z"/>
<path d="M7365 857 c-12 -9 -14 -16 -7 -21 6 -3 16 3 22 14 13 24 10 25 -15 7z"/>
<path d="M7296 771 c-4 -5 -2 -12 3 -15 5 -4 12 -2 15 3 4 5 2 12 -3 15 -5 4
-12 2 -15 -3z"/>
<path d="M6355 748 c-9 -22 -2 -68 10 -71 14 -3 19 63 6 76 -7 7 -12 5 -16 -5z"/>
</g>
</svg>
